<svg width="82" height="56" viewBox="0 0 82 56" fill="none" xmlns="http://www.w3.org/2000/svg">
<path d="M53.2104 9.33181C52.4499 9.59614 52.7366 10.4989 53.5346 10.4864L57.6691 10.3966L49.4001 32.6453L41.5948 18.2442C39.0463 13.5436 34.4504 10.6111 29.2661 10.2345H26.9445C23.9819 10.4384 21.1437 11.5046 18.7797 13.3019C16.4158 15.0991 14.6294 17.5487 13.6407 20.3489L0.902927 55.4575C0.882424 55.512 0.875418 55.5708 0.882503 55.6286C0.889589 55.6865 0.910557 55.7418 0.943622 55.7898C0.976687 55.8378 1.02087 55.8771 1.0724 55.9043C1.12393 55.9316 1.18129 55.9459 1.23957 55.9462H20.3113C20.4609 55.9462 20.598 55.8465 20.6479 55.7068L28.6551 33.5978L36.423 47.9365C39.3331 53.3129 44.9289 56.3976 51.001 55.9587C57.0831 55.5323 62.1902 51.7095 64.3397 45.969L77.6161 10.2345L81.1023 0.484219C81.1249 0.419543 81.1288 0.3498 81.1135 0.283007C81.0983 0.216214 81.0645 0.155082 81.016 0.106636C80.9676 0.0581896 80.9065 0.0243965 80.8397 0.00914059C80.7729 -0.00611535 80.7031 -0.00221442 80.6385 0.0203941L53.2104 9.33181Z" fill="white"/>
<path d="M13.6283 20.3388L0.900547 55.4549C0.880044 55.5094 0.873037 55.5682 0.880123 55.626C0.887209 55.6839 0.908177 55.7392 0.941242 55.7872C0.974307 55.8352 1.01849 55.8745 1.07002 55.9017C1.12155 55.929 1.1789 55.9434 1.23719 55.9436H20.3114C20.461 55.9436 20.5982 55.8439 20.648 55.7043L28.6527 33.5953L36.4231 47.9339C38.9716 52.6345 43.555 55.5796 48.7394 55.9561H51.0111L26.9421 10.2319C20.8226 10.6833 15.728 14.556 13.6283 20.3338V20.3388Z" fill="#FF9901"/>
<path d="M19.6476 31.7176L10.7926 55.47C10.7721 55.5245 10.7651 55.5833 10.7722 55.6411C10.7792 55.699 10.8002 55.7543 10.8333 55.8023C10.8663 55.8503 10.9105 55.8896 10.962 55.9168C11.0136 55.9441 11.0709 55.9584 11.1292 55.9587H20.3234C20.4731 55.9587 20.6102 55.859 20.6601 55.7193L28.6648 33.6103L27.0539 31.0917C25.3931 28.4733 20.7947 28.8349 19.6476 31.7176Z" fill="white"/>
<path d="M58.4273 34.5755L67.26 11.3867C67.3023 11.2769 67.3174 11.1585 67.3039 11.0415C67.2904 10.9246 67.2488 10.8127 67.1826 10.7154C67.1164 10.618 67.0276 10.5382 66.9238 10.4827C66.8201 10.4272 66.7044 10.3977 66.5867 10.3967H57.6668L49.3977 32.6952L51.0086 35.2139C52.6819 37.8223 57.2802 37.4582 58.4273 34.5755Z" fill="#FF9901"/>
</svg>
