<svg width="40" height="19" viewBox="0 0 40 19" fill="none" xmlns="http://www.w3.org/2000/svg">
<path d="M39.2257 11.0139L39.2257 2.81909L35.5021 2.81909L35.5021 11.0139C35.5021 11.6362 35.1715 12.1582 34.7787 12.1582L28.6751 12.1582L28.6751 16.5644L34.7778 16.5644C37.2336 16.5644 39.2257 14.0764 39.2257 11.0139Z" fill="#F05830"/>
<path d="M9.78667 18.5469L15.2564 18.5469C20.2274 18.5469 24.2679 15.1256 24.2679 10.9247L24.2679 8.4591C24.2679 4.25812 20.2274 0.836874 15.2564 0.836873L9.78668 0.836872C4.81473 0.836872 0.774171 4.25812 0.774171 8.45909L0.774171 10.9246C0.77417 15.1305 4.81473 18.5469 9.78667 18.5469ZM5.17541 8.45909C5.17541 6.31146 7.24139 4.56048 9.78181 4.56048L15.2515 4.56048C17.792 4.56049 19.857 6.3066 19.857 8.4591L19.857 10.9247C19.857 13.0733 17.792 14.8233 15.2515 14.8233L9.78181 14.8233C7.24139 14.8233 5.17541 13.0772 5.17541 10.9247L5.17541 8.45909Z" fill="#F05830"/>
</svg>
